<?xml version="1.0" encoding="UTF-8" standalone="no"?>
<svg
   xmlns:dc="http://purl.org/dc/elements/1.1/"
   xmlns:cc="http://creativecommons.org/ns#"
   xmlns:rdf="http://www.w3.org/1999/02/22-rdf-syntax-ns#"
   xmlns:svg="http://www.w3.org/2000/svg"
   xmlns="http://www.w3.org/2000/svg"
   xmlns:sodipodi="http://sodipodi.sourceforge.net/DTD/sodipodi-0.dtd"
   xmlns:inkscape="http://www.inkscape.org/namespaces/inkscape"
   inkscape:version="1.0 (4035a4fb49, 2020-05-01)"
   sodipodi:docname="cash.svg"
   id="svg34"
   version="1.1"
   viewBox="0 0 512 512"
   class="ionicon">
  <metadata
     id="metadata40">
    <rdf:RDF>
      <cc:Work
         rdf:about="">
        <dc:format>image/svg+xml</dc:format>
        <dc:type
           rdf:resource="http://purl.org/dc/dcmitype/StillImage" />
      </cc:Work>
    </rdf:RDF>
  </metadata>
  <defs
     id="defs38" />
  <sodipodi:namedview
     inkscape:current-layer="svg34"
     inkscape:window-maximized="1"
     inkscape:window-y="-11"
     inkscape:window-x="-11"
     inkscape:cy="236.18274"
     inkscape:cx="256"
     inkscape:zoom="1.5390625"
     showgrid="false"
     id="namedview36"
     inkscape:window-height="974"
     inkscape:window-width="1920"
     inkscape:pageshadow="2"
     inkscape:pageopacity="0"
     guidetolerance="10"
     gridtolerance="10"
     objecttolerance="10"
     borderopacity="1"
     bordercolor="#666666"
     pagecolor="transparent" />
  <path
     id="path26"
     d="M448 400H64a16 16 0 010-32h384a16 16 0 010 32zM416 448H96a16 16 0 010-32h320a16 16 0 010 32zM32 272H16v48a32 32 0 0032 32h48v-16a64.07 64.07 0 00-64-64z" />
  <path
     id="path28"
     d="M480 240h16v-64h-16a96.11 96.11 0 01-96-96V64H128v16a96.11 96.11 0 01-96 96H16v64h16a96.11 96.11 0 0196 96v16h256v-16a96.11 96.11 0 0196-96zm-224 64a96 96 0 1196-96 96.11 96.11 0 01-96 96z" />
  <circle
     id="circle30"
     r="64"
     cy="208"
     cx="256" />
  <path
     id="path32"
     d="M416 336v16h48a32 32 0 0032-32v-48h-16a64.07 64.07 0 00-64 64zM480 144h16V96a32 32 0 00-32-32h-48v16a64.07 64.07 0 0064 64zM96 80V64H48a32 32 0 00-32 32v48h16a64.07 64.07 0 0064-64z" />
  <path
     id="path42"
     d="m 127.81363,336.40609 c -0.36399,-16.74355 -0.99319,-20.86439 -4.90736,-32.13981 -9.689,-27.91086 -32.335829,-50.28103 -60.325358,-59.58845 -10.787544,-3.5872 -22.817101,-5.21468 -38.702739,-5.23607 l -7.634518,-0.0103 v -31.51269 -31.51269 h 9.771802 c 16.430945,0 28.698118,-1.96074 40.355562,-6.4503 C 94.480387,159.13022 116.30226,135.46766 124.40347,107.02831 127.25385,97.022016 128,90.773505 128,76.909814 V 64 h 128 128 v 12.909814 c 0,13.863691 0.74615,20.112202 3.59653,30.118496 8.12313,28.51633 29.84305,52.07109 58.0219,62.92342 11.66839,4.49377 23.93009,6.45436 40.36612,6.45436 h 9.7718 v 31.51269 31.51269 l -7.63452,0.0103 c -15.88564,0.0214 -27.9152,1.64887 -38.70274,5.23608 -31.87458,10.59931 -55.67396,37.06036 -63.57921,70.68975 -1.05551,4.49021 -1.38486,8.68072 -1.65351,21.0385 l -0.33547,15.43149 H 256 128.1491 Z m 145.40464,-33.65432 c 29.18987,-5.20952 54.80937,-24.22267 68.39367,-50.75741 6.67492,-13.03838 9.7377,-24.85548 10.34832,-39.9269 0.59988,-14.80648 -1.43726,-27.08537 -6.65748,-40.12798 -15.50351,-38.73525 -55.52934,-63.47404 -96.83802,-59.85272 -13.81628,1.21119 -24.30091,4.16695 -36.14247,10.18904 -9.4776,4.81988 -17.1418,10.37945 -24.524,17.78957 -7.67756,7.7066 -13.39548,15.67105 -17.92683,24.97016 -6.79643,13.94749 -9.29881,24.12229 -9.82756,39.95939 -0.3032,9.08135 -0.14769,11.95005 1.01691,18.75903 7.4564,43.59465 41.58737,75.37883 86.16762,80.24289 4.87405,0.5318 20.12837,-0.19898 25.98984,-1.24507 z"
     style="fill:#25171a;stroke-width:0.649746" />
  <path
     id="path44"
     d="m 128.61645,351.67513 c -0.0183,-0.0893 -0.29423,-7.1797 -0.61317,-15.75635 -0.64651,-17.38592 -1.08421,-20.43106 -4.33507,-30.15945 -7.04213,-21.07402 -21.97448,-40.0462 -40.82557,-51.87062 -5.543933,-3.47744 -16.622579,-8.45866 -22.73238,-10.22099 -10.039818,-2.89593 -16.178099,-3.71743 -30.384372,-4.06646 l -13.482233,-0.33124 v -31.34817 -31.34817 l 14.456853,-0.35466 c 11.323362,-0.27778 15.865162,-0.65726 20.954314,-1.75078 18.042705,-3.87689 33.253218,-11.85888 46.301941,-24.29777 14.170137,-13.5079 22.764207,-27.96641 27.594677,-46.42479 1.89236,-7.231118 1.99866,-8.329969 2.28918,-23.664462 L 128.1453,64 h 127.86161 127.86161 l 0.30045,16.081218 c 0.27549,14.745007 0.44498,16.646559 2.03981,22.885062 6.79452,26.57808 23.70395,48.56093 47.43377,61.66553 15.24118,8.41682 29.84483,11.77428 51.2135,11.77428 h 10.9003 v 31.51269 31.51269 h -10.36266 c -11.79713,0 -22.3169,1.20557 -31.07695,3.56143 -33.13536,8.91114 -59.14119,35.55247 -68.09765,69.7617 -1.42313,5.43569 -1.72018,8.43399 -2.23054,22.51444 -0.32382,8.93401 -0.59991,16.31675 -0.61353,16.40609 -0.0136,0.0893 -57.33238,0.16243 -127.37502,0.16243 -70.04264,0 -127.36524,-0.0731 -127.38355,-0.16243 z m 146.55106,-49.15515 c 19.99934,-4.08721 36.74192,-13.43348 51.10885,-28.53067 11.91706,-12.52278 20.59541,-29.06585 24.26407,-46.25327 1.58051,-7.40456 1.99336,-26.67931 0.74457,-34.76142 -3.86251,-24.99798 -16.96914,-46.75279 -37.424,-62.11761 -7.41535,-5.57009 -19.30886,-11.83268 -27.58019,-14.52248 -25.17293,-8.18613 -52.67104,-5.79266 -75.76304,6.59452 -9.10043,4.88171 -14.86614,9.20819 -22.77053,17.08654 -13.44152,13.39727 -22.24127,29.50185 -26.27477,48.08593 -1.65423,7.62176 -2.07243,27.41767 -0.74387,35.2118 4.16982,24.46265 16.23534,45.06091 35.3749,60.39198 11.99969,9.61193 27.74546,16.56692 44.62746,19.71218 7.37324,1.3737 25.65458,0.89724 34.43655,-0.8975 z"
     style="fill:#25171a;stroke-width:0.649746" />
  <path
     id="path46"
     d="m 16.243655,119.11502 c 0,-15.14192 0.277474,-26.507175 0.704189,-28.843404 2.462917,-13.484254 13.946643,-24.024463 27.926017,-25.631584 3.014808,-0.346593 15.675015,-0.632389 28.133793,-0.635101 L 95.659981,64 95.354451,77.482234 c -0.275375,12.151687 -0.475348,14.059338 -2.026259,19.329949 -6.87117,23.350907 -25.075902,40.345007 -48.820578,45.573957 -2.649672,0.58351 -9.498017,1.15089 -16.406091,1.35925 l -11.857868,0.35766 z"
     style="fill:#25171a;stroke-width:0.649746" />
  <path
     id="path48"
     d="M 41.915233,351.07397 C 30.201436,348.8402 19.480882,338.05853 16.961679,325.97817 16.509436,323.80952 16.243655,313.26302 16.243655,297.48612 v -25.0489 l 13.482233,0.2959 c 14.412037,0.31631 16.354539,0.64436 26.123967,4.41186 14.796143,5.70599 29.395527,20.36276 35.184525,35.32282 3.401531,8.79031 4.460098,15.4598 4.469773,28.16164 l 0.0085,11.20812 -25.177665,-0.0727 c -13.847715,-0.04 -26.636622,-0.35089 -28.419792,-0.69093 z"
     style="fill:#25171a;stroke-width:0.649746" />
  <path
     id="path50"
     d="m 416.49222,340.95431 c 0.006,-12.7864 0.59733,-17.10819 3.5141,-25.67308 3.16592,-9.29648 7.34079,-15.86692 14.99876,-23.60513 7.45407,-7.53218 14.32651,-12.08606 22.98952,-15.23354 8.57522,-3.11558 13.75325,-3.87403 26.44834,-3.87403 h 11.31341 v 24.98325 c 0,15.72896 -0.26597,26.25865 -0.71803,28.42639 -2.58224,12.38265 -13.27974,22.91337 -25.55359,25.15521 -2.32888,0.42537 -13.58398,0.70418 -28.4264,0.70418 h -24.57102 l 0.005,-10.88325 z"
     style="fill:#25171a;stroke-width:0.649746" />
  <path
     id="path52"
     d="m 474.96447,143.48871 c -26.82793,-2.62013 -48.65416,-20.71791 -56.29266,-46.676527 -1.55092,-5.270611 -1.75089,-7.178262 -2.02626,-19.329949 L 416.34002,64 l 22.65233,0.0049 c 12.45877,0.0027 25.11898,0.288508 28.13379,0.635101 13.97937,1.607121 25.4631,12.14733 27.92602,25.631584 0.42642,2.334627 0.70419,13.675525 0.70419,28.751275 v 24.89589 l -9.25889,-0.10398 c -5.09238,-0.0572 -10.28223,-0.20393 -11.53299,-0.32609 z"
     style="fill:#25171a;stroke-width:0.649746" />
  <path
     id="path54"
     d="m 248.77076,271.27748 c -43.37502,-5.3924 -68.95382,-51.77579 -49.9892,-90.64804 10.97577,-22.4973 32.49738,-36.06091 57.21844,-36.06091 16.30591,0 31.02604,5.72464 42.83602,16.65887 6.34383,5.87341 10.55134,11.54939 14.38242,19.40204 15.51083,31.79292 1.5671,70.17626 -30.95133,85.20071 -9.75884,4.50885 -23.3138,6.71323 -33.49635,5.44733 z"
     style="fill:#25171a;stroke-width:0.649746" />
  <path
     id="path56"
     d="m 58.566223,398.59602 c -1.201775,-0.4349 -3.291095,-1.71932 -4.642933,-2.85425 -9.128484,-7.66383 -6.244309,-22.43029 5.167486,-26.4566 C 61.570437,368.41029 84.004269,368.2978 256,368.2978 c 171.99573,0 194.42956,0.11249 196.90922,0.98737 8.84751,3.12158 13.10239,13.07907 9.11149,21.32317 -1.76001,3.63571 -5.61267,7.09167 -9.05564,8.12321 -3.73416,1.11878 -391.300808,0.9856 -394.398847,-0.13553 z"
     style="fill:#25171a;stroke-width:0.649746" />
  <path
     id="path58"
     d="m 89.132181,445.87906 c -12.200882,-6.07996 -11.089198,-24.01127 1.773676,-28.60916 3.438851,-1.22923 326.749433,-1.22923 330.188283,0 3.79916,1.35803 6.94322,4.2053 8.77268,7.94457 3.5107,7.17562 0.97835,15.82478 -5.87362,20.06108 l -3.18056,1.96641 -164.13922,0.1662 -164.139219,0.1662 z"
     style="fill:#25171a;stroke-width:0.649746" />
  <path
     id="path60"
     d="m 128.39964,347.34349 c -0.19444,-2.23351 -0.48745,-9.17767 -0.65112,-15.43148 -0.3318,-12.67783 -1.2959,-18.47203 -4.58579,-27.56051 -5.17178,-14.28729 -12.27527,-25.37025 -23.384781,-36.4853 -9.199366,-9.20395 -17.58666,-15.07369 -28.49316,-19.94056 -12.696203,-5.6655 -23.922545,-7.86338 -44.157885,-8.64519 l -10.883249,-0.42048 v -31.01643 -31.01643 l 13.15736,-0.40534 c 15.497548,-0.47743 22.70848,-1.57743 33.293024,-5.07868 27.998542,-9.26163 50.653401,-31.60047 60.338511,-59.49682 3.8942,-11.21658 4.39707,-14.570296 4.77919,-31.873343 L 128.1597,64.216582 H 256.07985 384 l 0.004,12.832487 c 0.006,20.244239 2.18345,30.493171 9.76636,45.969541 11.14274,22.74183 32.16075,40.87012 56.41508,48.65867 10.07069,3.2339 17.49612,4.32371 32.41371,4.75727 l 13.15736,0.3824 v 30.99563 30.99563 l -11.78219,0.46508 c -18.69393,0.7379 -30.1821,2.9446 -42.11702,8.09003 -27.39438,11.81035 -47.93994,36.02756 -55.60996,65.54786 -1.28541,4.94728 -1.68277,8.40397 -1.95323,16.99159 -0.18674,5.92945 -0.50171,13.193 -0.69994,16.14122 l -0.36041,5.36041 H 255.99345 128.75324 l -0.35354,-4.06091 z m 142.0942,-44.10101 c 19.4703,-2.4609 38.64463,-12.18429 53.70191,-27.2325 13.33532,-13.3273 22.84156,-31.01477 26.4635,-49.23845 1.64852,-8.29451 1.63239,-30.20169 -0.0279,-37.80368 -4.32114,-19.78596 -12.49838,-34.91351 -26.3636,-48.77151 -13.9444,-13.93718 -30.47884,-22.86755 -50.07488,-27.04583 -8.43138,-1.79774 -28.49599,-1.62614 -37.48282,0.32058 -19.27277,4.17485 -34.75972,12.59074 -48.63976,26.43173 -11.09021,11.05902 -17.31073,20.6651 -22.6642,34.99935 -4.27632,11.45011 -5.14437,17.00079 -5.19717,33.23319 -0.0509,15.66203 0.54939,19.53442 4.98619,32.16244 10.64354,30.29367 35.83732,53.1946 67.2794,61.15641 4.18368,1.05939 9.65339,2.17685 12.15491,2.48324 5.11007,0.62589 18.19583,0.27427 25.8644,-0.69497 z"
     style="fill:#25171a;stroke-width:0.649746" />
  <path
     id="path62"
     d="m 416.78942,339.59189 c 0.50882,-13.30085 1.23681,-17.75605 4.25819,-26.05936 4.75604,-13.07043 16.73165,-26.46491 29.99059,-33.54387 9.81734,-5.24148 19.47092,-7.20355 35.44222,-7.20355 h 9.27593 l -0.0613,13.80711 c -0.0337,7.59391 -0.27643,19.80101 -0.53941,27.1269 -0.41404,11.53401 -0.67319,13.82008 -1.93295,17.05131 -3.13384,8.03811 -11.05938,15.76044 -19.3736,18.87685 -3.59221,1.34647 -4.94177,1.41819 -30.63639,1.62817 l -26.87864,0.21966 z"
     style="fill:#221c24;stroke-width:0.649746" />
  <path
     id="path64"
     d="m 482.11168,143.24083 c -8.97974,-0.33709 -13.27704,-0.7904 -16.98854,-1.79208 -22.10241,-5.96512 -38.72224,-21.84323 -45.70156,-43.661948 -1.57218,-4.914969 -1.83199,-7.053339 -2.3605,-19.428191 -0.32663,-7.647941 -0.44295,-14.05627 -0.25849,-14.240731 0.18446,-0.184461 12.2499,-0.03666 26.81208,0.328446 24.14881,0.605463 26.80071,0.781791 30.1619,2.005502 8.4667,3.08248 14.67849,8.755514 18.63534,17.019077 l 2.3231,4.851615 0.4597,14.3159 c 0.78455,24.43232 0.68191,41.29715 -0.25055,41.167 -0.4467,-0.0624 -6.22132,-0.31641 -12.83248,-0.56459 z"
     style="fill:#221c24;stroke-width:0.649746" />
  <path
     id="path66"
     d="m 128.98717,350.37563 c -0.14934,-0.4467 -0.56634,-7.56238 -0.92665,-15.81263 -0.8677,-19.86839 -2.31431,-26.44916 -8.83455,-40.18926 -7.70843,-16.24398 -23.837862,-33.51778 -39.853798,-42.68139 -8.783494,-5.02554 -20.603042,-9.14149 -31.290954,-10.89655 -5.171829,-0.84926 -20.723059,-2.00062 -27.126903,-2.00837 l -4.71066,-0.006 v -30.73818 -30.73818 l 14.781726,-0.76508 c 16.598406,-0.8591 24.149634,-2.14096 33.927606,-5.75936 30.303508,-11.21402 52.673443,-35.89776 60.852223,-67.14641 1.3376,-5.110565 1.6693,-8.18485 1.92789,-17.868023 0.17177,-6.432487 0.47324,-13.815228 0.66992,-16.406091 l 0.3576,-4.71066 H 256.38031 384 v 12.7491 c 0,19.78599 1.98846,29.851174 8.65732,43.821484 11.4135,23.90969 31.87882,42.11786 56.54385,50.30758 10.15178,3.37077 15.11361,4.1616 31.44858,5.01237 l 15.1066,0.78678 v 30.62576 30.62575 l -10.88325,0.43985 c -12.61183,0.50971 -22.32377,1.68891 -29.95278,3.63677 -33.16701,8.46828 -60.14572,36.04883 -68.98359,70.52247 -1.00513,3.92068 -1.49171,8.8702 -1.98013,20.14214 -0.35615,8.21929 -0.79004,15.60203 -0.9642,16.40609 l -0.31665,1.46193 H 255.96723 c -100.78883,0 -126.76407,-0.16614 -126.98006,-0.81219 z M 268.0203,303.74547 c 21.49194,-2.38875 39.74269,-11.38403 55.92009,-27.56143 11.56633,-11.56633 19.02632,-23.47593 23.8689,-38.10581 3.6158,-10.92369 4.03326,-14.18698 3.98289,-31.13407 -0.0448,-15.09248 -0.0696,-15.35919 -2.142,-23.06599 -3.37005,-12.53267 -8.922,-24.16355 -16.01187,-33.54359 -4.47204,-5.91659 -15.39539,-16.49629 -21.59204,-20.91275 -10.41271,-7.42133 -24.78219,-13.76672 -36.89728,-16.2934 -11.4768,-2.39356 -30.74692,-1.86333 -42.72697,1.17566 -17.31399,4.39206 -31.46255,12.5253 -44.69823,25.69458 -10.69911,10.64545 -17.50682,21.28044 -22.88931,35.75768 -4.05923,10.91802 -4.67404,15.2506 -4.65622,32.81218 0.0144,14.25107 0.14739,16.09713 1.5437,21.43772 9.90045,37.86732 37.50604,64.50743 75.4354,72.79714 7.71056,1.68519 20.62918,2.07953 30.86294,0.94208 z"
     style="fill:#550022;stroke-width:0.649746" />
  <path
     id="path68"
     d="m 416.84119,343.5994 c 0.89948,-18.93395 2.66073,-27.5387 7.4836,-36.56179 6.20588,-11.61058 18.09656,-22.77894 30.2118,-28.37652 8.16946,-3.77453 13.94934,-4.84626 28.34147,-5.25523 l 12.78669,-0.36334 -0.32318,19.41783 c -0.17775,10.6798 -0.57934,23.194 -0.89242,27.80933 -0.5094,7.5093 -0.78872,8.83732 -2.6568,12.63194 -2.81698,5.72211 -9.32953,12.19419 -15.15741,15.06325 -5.31323,2.61569 -8.35642,2.85509 -39.84856,3.13477 l -20.31006,0.18037 z"
     style="fill:#25171a;stroke-width:0.649746" />
  <path
     id="path70"
     d="m 174.99541,350.70059 -45.59342,-0.17126 -0.35405,-4.05655 c -0.19473,-2.23109 -0.65331,-9.19791 -1.01905,-15.48182 -1.02493,-17.60929 -2.7907,-24.95703 -8.9651,-37.30568 -9.29714,-18.59407 -28.284631,-37.44452 -45.720126,-45.39013 -14.106909,-6.42873 -30.21228,-9.50526 -49.790365,-9.5112 l -7.309644,-0.002 v -30.48636 -30.48635 l 4.060914,-0.35841 c 2.233502,-0.19712 7.42335,-0.52899 11.532994,-0.73749 16.529566,-0.83862 26.31341,-2.77259 37.344932,-7.38197 23.671778,-9.89093 43.196805,-29.55833 52.642725,-53.02658 4.53642,-11.2707 5.51284,-16.522486 6.22126,-33.46193 0.3512,-8.39797 0.78238,-15.926904 0.95816,-16.730965 l 0.31961,-1.461929 H 256.66212 384 v 13.073973 c 0,20.774161 2.00678,30.613331 9.15306,44.877131 10.04361,20.04682 25.29645,35.1655 45.10075,44.70406 12.18098,5.86687 21.1182,8.03801 37.48283,9.10579 5.82911,0.38035 12.71818,0.85224 15.30905,1.04865 l 4.71066,0.35711 v 30.10232 30.10233 l -4.71066,0.34363 c -2.59087,0.18899 -9.24264,0.66405 -14.78173,1.05567 -5.53909,0.39163 -12.38084,1.12234 -15.20391,1.62379 -12.10342,2.14989 -26.41319,8.23651 -36.9474,15.71546 -6.82041,4.84226 -17.92187,15.93517 -22.73939,22.72185 -6.87048,9.67882 -12.97289,22.69346 -15.46787,32.98845 -1.01201,4.17586 -3.12312,29.19941 -3.1979,37.90567 -0.007,0.80242 -56.90877,0.89144 -207.71208,0.32496 z m 98.64561,-47.57105 c 19.78233,-3.42451 34.84682,-11.49687 50.29187,-26.94907 11.75697,-11.76239 17.68476,-20.79479 23.05165,-35.12463 4.42045,-11.80282 4.85302,-14.81438 4.85302,-33.7868 v -16.89341 l -2.08729,-7.24263 c -3.57427,-12.40225 -9.09091,-23.85578 -15.81458,-32.83394 -4.6531,-6.21331 -17.22227,-18.01591 -24.04876,-22.58207 -11.34926,-7.5914 -26.07941,-13.49291 -38.40302,-15.38586 -9.00098,-1.38258 -26.7467,-0.87059 -35.75534,1.03158 -18.74357,3.95771 -33.43767,12.11086 -47.99899,26.63268 -12.14613,12.11318 -18.88785,22.97153 -24.29463,39.12942 -3.01249,9.00271 -3.80152,16.71199 -3.4339,33.55101 0.32616,14.93919 0.90225,17.99408 5.72104,30.33691 12.22508,31.31324 40.35479,54.39071 73.67663,60.44391 7.42731,1.34923 25.55921,1.17603 34.2423,-0.3271 z"
     style="fill:#25171a;stroke-width:0.649746" />
  <path
     id="path72"
     d="m 417.24962,342.34179 c 0.79604,-15.97437 2.79581,-26.27411 6.5455,-33.71235 5.87545,-11.6551 19.56792,-24.69932 31.45098,-29.96199 6.92832,-3.06836 12.77843,-4.16819 25.56608,-4.80648 6.61117,-0.32999 12.57926,-0.60959 13.26243,-0.62134 1.20762,-0.0208 1.23029,0.606 0.81599,22.55732 -0.50354,26.67929 -0.99038,31.84595 -3.48772,37.01311 -2.30202,4.763 -9.71163,12.22091 -14.56698,14.6619 -4.84199,2.43429 -10.1392,2.90084 -37.60747,3.31228 l -22.41625,0.33577 z"
     style="fill:#25171a;stroke-width:0.649746" />
  <path
     id="path74"
     d="m 245.60423,270.56906 c -6.06607,-1.07885 -16.00227,-4.82638 -21.60826,-8.14976 -7.25174,-4.29902 -17.35125,-14.31315 -21.79614,-21.61187 -3.80798,-6.2529 -6.74172,-13.8787 -8.30233,-21.5806 -1.59457,-7.86955 -1.01469,-20.35966 1.30695,-28.15017 7.09494,-23.80791 25.91243,-40.88609 49.8286,-45.22292 5.7192,-1.03709 18.20748,-0.89308 23.637,0.27257 24.02804,5.15852 42.09385,22.6311 48.89095,47.28553 1.80687,6.55386 1.61115,23.17685 -0.35774,30.3823 -6.17503,22.59864 -23.8863,39.99432 -46.39302,45.56635 -6.24416,1.54588 -19.68562,2.19037 -25.20601,1.20857 z"
     style="fill:#25171a;stroke-width:0.649746" />
  <path
     id="path76"
     d="m 475.28648,142.56632 c -19.10336,-1.38169 -36.81757,-11.94069 -47.5589,-28.34868 -8.19005,-12.51077 -10.5296,-22.006936 -10.57578,-42.926822 l -0.0147,-6.678726 17.70558,0.120461 c 9.73807,0.06625 22.05854,0.339267 27.37882,0.606696 9.59806,0.482454 9.71489,0.506869 15.03113,3.14117 6.45615,3.199149 11.17161,7.945193 14.85126,14.947577 l 2.47746,4.71461 0.42508,22.202804 c 0.2338,12.21155 0.34016,24.615 0.23637,27.56322 l -0.18871,5.36041 -6.30875,-0.0928 c -3.46982,-0.051 -9.52628,-0.32551 -13.45882,-0.60993 z"
     style="fill:#25171a;stroke-width:0.649746" />
  <path
     id="path78"
     d="m 16.292525,130.14026 c 0.02688,-7.60963 0.258207,-20.13487 0.514062,-27.83386 l 0.465192,-13.99817 2.311254,-4.84447 c 3.930428,-8.238317 10.124222,-13.921657 18.47957,-16.9566 3.561323,-1.293592 5.805972,-1.446146 30.322723,-2.060834 14.562183,-0.365106 26.627619,-0.512907 26.812082,-0.328446 0.184456,0.184461 0.06814,6.59279 -0.258489,14.240731 -0.527061,12.34106 -0.791599,14.526643 -2.351535,19.428191 -6.36724,20.006868 -21.228059,35.427468 -40.437145,41.960318 -7.096434,2.41344 -13.072796,3.27513 -26.647701,3.84212 l -9.258883,0.38673 z"
     style="fill:#25171a;stroke-width:0.649746" />
  <path
     id="path80"
     d="m 64.324873,351.21401 -23.715736,-0.35107 -5.120699,-2.44496 C 28.742523,345.19702 23.197,339.6366 19.725699,332.61291 l -2.497785,-5.05393 -0.432922,-13.03837 c -0.238107,-7.17111 -0.459565,-19.54777 -0.492129,-27.5037 l -0.05921,-14.46533 10.233502,0.34992 c 18.875981,0.64544 22.046334,1.22986 31.913389,5.8829 18.60283,8.77261 32.519589,26.70681 35.764363,46.0887 0.358959,2.14416 0.853052,9.08832 1.09798,15.43147 l 0.44533,11.53299 -3.828805,-0.13624 c -2.10584,-0.0749 -14.500886,-0.29423 -27.544541,-0.48731 z"
     style="fill:#25171a;stroke-width:0.649746" />
  <path
     id="path82"
     d="m 89.989848,398.66712 c -31.623589,-0.3702 -31.851245,-0.38246 -33.8733,-1.8248 -9.461086,-6.74864 -9.698967,-18.2634 -0.521906,-25.26308 1.925191,-1.46842 3.25544,-1.82572 8.590378,-2.30736 3.50046,-0.31603 91.26315,-0.49108 197.01295,-0.39297 185.01685,0.17165 190.77364,0.21326 193.15414,1.39612 4.88073,2.42521 8.91693,8.63773 8.91693,13.72497 0,4.87527 -4.06398,11.33456 -8.68354,13.80163 -1.88887,1.00875 -14.08275,1.09348 -167.39768,1.1631 -90.94823,0.0413 -179.68731,-0.0926 -197.197972,-0.29761 z"
     style="fill:#25171a;stroke-width:0.649746" />
  <path
     id="path84"
     d="m 89.585142,445.72516 c -3.312439,-1.72541 -6.145415,-4.72747 -7.49071,-7.93779 -1.247324,-2.97654 -1.078784,-9.09706 0.336049,-12.20361 1.387551,-3.04666 5.781557,-7.22385 8.355169,-7.9429 0.99175,-0.27709 75.63059,-0.5038 165.8641,-0.5038 151.83144,0 164.20621,0.0806 166.01015,1.08162 10.01978,5.55991 11.08561,19.09924 2.0419,25.93828 l -3.08052,2.32955 -64.78018,0.43151 c -35.6291,0.23733 -109.6614,0.41806 -164.51623,0.40162 l -99.736038,-0.0299 z"
     style="fill:#25171a;stroke-width:0.649746" />
</svg>
